<mxfile host="app.diagrams.net" modified="2022-09-27T03:31:33.952Z" agent="5.0 (Windows NT 10.0; Win64; x64) AppleWebKit/537.36 (KHTML, like Gecko) Chrome/105.0.0.0 Safari/537.36" etag="Z4Ewt_n7UYOWQWGS3lio" version="20.3.6" type="github">
  <diagram id="R2lEEEUBdFMjLlhIrx00" name="Page-1">
    <mxGraphModel dx="1662" dy="794" grid="1" gridSize="10" guides="1" tooltips="1" connect="1" arrows="1" fold="1" page="1" pageScale="1" pageWidth="850" pageHeight="1100" math="0" shadow="0" extFonts="Permanent Marker^https://fonts.googleapis.com/css?family=Permanent+Marker">
      <root>
        <mxCell id="0" />
        <mxCell id="1" parent="0" />
        <mxCell id="RF46ALNrW0UuLXFVp8Kt-1" value="Employee" style="whiteSpace=wrap;html=1;align=center;" vertex="1" parent="1">
          <mxGeometry x="145" y="155" width="120" height="40" as="geometry" />
        </mxCell>
        <mxCell id="RF46ALNrW0UuLXFVp8Kt-2" value="Order" style="whiteSpace=wrap;html=1;align=center;" vertex="1" parent="1">
          <mxGeometry x="585" y="155" width="120" height="40" as="geometry" />
        </mxCell>
        <mxCell id="RF46ALNrW0UuLXFVp8Kt-3" value="Part" style="whiteSpace=wrap;html=1;align=center;" vertex="1" parent="1">
          <mxGeometry x="585" y="315" width="120" height="40" as="geometry" />
        </mxCell>
        <mxCell id="RF46ALNrW0UuLXFVp8Kt-4" value="Customer" style="whiteSpace=wrap;html=1;align=center;" vertex="1" parent="1">
          <mxGeometry x="145" y="315" width="120" height="40" as="geometry" />
        </mxCell>
        <mxCell id="RF46ALNrW0UuLXFVp8Kt-6" value="&lt;u&gt;unique employee id&lt;/u&gt;" style="ellipse;whiteSpace=wrap;html=1;align=center;" vertex="1" parent="1">
          <mxGeometry x="25" y="75" width="80" height="40" as="geometry" />
        </mxCell>
        <mxCell id="RF46ALNrW0UuLXFVp8Kt-7" value="first name" style="ellipse;whiteSpace=wrap;html=1;align=center;" vertex="1" parent="1">
          <mxGeometry x="105" y="20" width="80" height="40" as="geometry" />
        </mxCell>
        <mxCell id="RF46ALNrW0UuLXFVp8Kt-8" value="last name" style="ellipse;whiteSpace=wrap;html=1;align=center;" vertex="1" parent="1">
          <mxGeometry x="225" y="20" width="80" height="40" as="geometry" />
        </mxCell>
        <mxCell id="RF46ALNrW0UuLXFVp8Kt-9" value="ZIP code" style="ellipse;whiteSpace=wrap;html=1;align=center;" vertex="1" parent="1">
          <mxGeometry x="305" y="75" width="80" height="40" as="geometry" />
        </mxCell>
        <mxCell id="RF46ALNrW0UuLXFVp8Kt-10" value="name" style="ellipse;whiteSpace=wrap;html=1;align=center;" vertex="1" parent="1">
          <mxGeometry x="165" y="75" width="80" height="40" as="geometry" />
        </mxCell>
        <mxCell id="RF46ALNrW0UuLXFVp8Kt-21" value="" style="endArrow=none;html=1;rounded=0;entryX=0.5;entryY=0;entryDx=0;entryDy=0;exitX=0.5;exitY=1;exitDx=0;exitDy=0;" edge="1" parent="1" source="RF46ALNrW0UuLXFVp8Kt-6" target="RF46ALNrW0UuLXFVp8Kt-1">
          <mxGeometry width="50" height="50" relative="1" as="geometry">
            <mxPoint x="65" y="-10" as="sourcePoint" />
            <mxPoint x="205" y="-50" as="targetPoint" />
          </mxGeometry>
        </mxCell>
        <mxCell id="RF46ALNrW0UuLXFVp8Kt-22" value="" style="endArrow=none;html=1;rounded=0;exitX=0.5;exitY=1;exitDx=0;exitDy=0;" edge="1" parent="1" source="RF46ALNrW0UuLXFVp8Kt-10">
          <mxGeometry width="50" height="50" relative="1" as="geometry">
            <mxPoint x="205" y="-10" as="sourcePoint" />
            <mxPoint x="205" y="155" as="targetPoint" />
          </mxGeometry>
        </mxCell>
        <mxCell id="RF46ALNrW0UuLXFVp8Kt-23" value="" style="endArrow=none;html=1;rounded=0;entryX=0.5;entryY=0;entryDx=0;entryDy=0;exitX=0.5;exitY=1;exitDx=0;exitDy=0;" edge="1" parent="1" source="RF46ALNrW0UuLXFVp8Kt-9" target="RF46ALNrW0UuLXFVp8Kt-1">
          <mxGeometry width="50" height="50" relative="1" as="geometry">
            <mxPoint x="345" y="-10" as="sourcePoint" />
            <mxPoint x="205" y="-50" as="targetPoint" />
          </mxGeometry>
        </mxCell>
        <mxCell id="RF46ALNrW0UuLXFVp8Kt-24" value="" style="endArrow=none;html=1;rounded=0;entryX=0.5;entryY=0;entryDx=0;entryDy=0;exitX=0.5;exitY=1;exitDx=0;exitDy=0;" edge="1" parent="1" source="RF46ALNrW0UuLXFVp8Kt-7" target="RF46ALNrW0UuLXFVp8Kt-10">
          <mxGeometry width="50" height="50" relative="1" as="geometry">
            <mxPoint x="145" y="155" as="sourcePoint" />
            <mxPoint x="195" y="105" as="targetPoint" />
          </mxGeometry>
        </mxCell>
        <mxCell id="RF46ALNrW0UuLXFVp8Kt-25" value="" style="endArrow=none;html=1;rounded=0;exitX=0.5;exitY=1;exitDx=0;exitDy=0;entryX=0.5;entryY=0;entryDx=0;entryDy=0;" edge="1" parent="1" source="RF46ALNrW0UuLXFVp8Kt-8" target="RF46ALNrW0UuLXFVp8Kt-10">
          <mxGeometry width="50" height="50" relative="1" as="geometry">
            <mxPoint x="355" y="155" as="sourcePoint" />
            <mxPoint x="205" y="115" as="targetPoint" />
          </mxGeometry>
        </mxCell>
        <mxCell id="RF46ALNrW0UuLXFVp8Kt-26" value="&lt;u&gt;unique&lt;br&gt;order id&lt;br&gt;&lt;/u&gt;" style="ellipse;whiteSpace=wrap;html=1;align=center;" vertex="1" parent="1">
          <mxGeometry x="465" y="75" width="80" height="40" as="geometry" />
        </mxCell>
        <mxCell id="RF46ALNrW0UuLXFVp8Kt-27" value="date of receipt" style="ellipse;whiteSpace=wrap;html=1;align=center;" vertex="1" parent="1">
          <mxGeometry x="545" y="35" width="80" height="40" as="geometry" />
        </mxCell>
        <mxCell id="RF46ALNrW0UuLXFVp8Kt-28" value="excepted&lt;br&gt;ship date" style="ellipse;whiteSpace=wrap;html=1;align=center;" vertex="1" parent="1">
          <mxGeometry x="665" y="35" width="80" height="40" as="geometry" />
        </mxCell>
        <mxCell id="RF46ALNrW0UuLXFVp8Kt-29" value="actual&lt;br&gt;ship date" style="ellipse;whiteSpace=wrap;html=1;align=center;" vertex="1" parent="1">
          <mxGeometry x="745" y="75" width="80" height="40" as="geometry" />
        </mxCell>
        <mxCell id="RF46ALNrW0UuLXFVp8Kt-31" value="" style="endArrow=none;html=1;rounded=0;exitX=0.5;exitY=1;exitDx=0;exitDy=0;" edge="1" parent="1" source="RF46ALNrW0UuLXFVp8Kt-26">
          <mxGeometry width="50" height="50" relative="1" as="geometry">
            <mxPoint x="505" y="11" as="sourcePoint" />
            <mxPoint x="645" y="155" as="targetPoint" />
          </mxGeometry>
        </mxCell>
        <mxCell id="RF46ALNrW0UuLXFVp8Kt-33" value="" style="endArrow=none;html=1;rounded=0;exitX=0.5;exitY=1;exitDx=0;exitDy=0;" edge="1" parent="1" source="RF46ALNrW0UuLXFVp8Kt-29">
          <mxGeometry width="50" height="50" relative="1" as="geometry">
            <mxPoint x="785" y="11" as="sourcePoint" />
            <mxPoint x="645" y="155" as="targetPoint" />
          </mxGeometry>
        </mxCell>
        <mxCell id="RF46ALNrW0UuLXFVp8Kt-36" value="" style="endArrow=none;html=1;rounded=0;exitX=0.5;exitY=1;exitDx=0;exitDy=0;" edge="1" parent="1" source="RF46ALNrW0UuLXFVp8Kt-27">
          <mxGeometry width="50" height="50" relative="1" as="geometry">
            <mxPoint x="592" y="21" as="sourcePoint" />
            <mxPoint x="642" y="155" as="targetPoint" />
          </mxGeometry>
        </mxCell>
        <mxCell id="RF46ALNrW0UuLXFVp8Kt-37" value="" style="endArrow=none;html=1;rounded=0;entryX=0.5;entryY=0;entryDx=0;entryDy=0;exitX=0.5;exitY=1;exitDx=0;exitDy=0;" edge="1" parent="1" source="RF46ALNrW0UuLXFVp8Kt-28" target="RF46ALNrW0UuLXFVp8Kt-2">
          <mxGeometry width="50" height="50" relative="1" as="geometry">
            <mxPoint x="705" y="91" as="sourcePoint" />
            <mxPoint x="644.9999999999998" y="-29" as="targetPoint" />
          </mxGeometry>
        </mxCell>
        <mxCell id="RF46ALNrW0UuLXFVp8Kt-38" value="&lt;u&gt;unique customer id&lt;/u&gt;" style="ellipse;whiteSpace=wrap;html=1;align=center;" vertex="1" parent="1">
          <mxGeometry x="25" y="395" width="80" height="40" as="geometry" />
        </mxCell>
        <mxCell id="RF46ALNrW0UuLXFVp8Kt-39" value="first name" style="ellipse;whiteSpace=wrap;html=1;align=center;" vertex="1" parent="1">
          <mxGeometry x="105" y="475" width="80" height="40" as="geometry" />
        </mxCell>
        <mxCell id="RF46ALNrW0UuLXFVp8Kt-40" value="last name" style="ellipse;whiteSpace=wrap;html=1;align=center;" vertex="1" parent="1">
          <mxGeometry x="225" y="475" width="80" height="40" as="geometry" />
        </mxCell>
        <mxCell id="RF46ALNrW0UuLXFVp8Kt-41" value="ZIP code" style="ellipse;whiteSpace=wrap;html=1;align=center;" vertex="1" parent="1">
          <mxGeometry x="305" y="395" width="80" height="40" as="geometry" />
        </mxCell>
        <mxCell id="RF46ALNrW0UuLXFVp8Kt-42" value="name" style="ellipse;whiteSpace=wrap;html=1;align=center;" vertex="1" parent="1">
          <mxGeometry x="165" y="395" width="80" height="40" as="geometry" />
        </mxCell>
        <mxCell id="RF46ALNrW0UuLXFVp8Kt-43" value="" style="endArrow=none;html=1;rounded=0;entryX=0.5;entryY=1;entryDx=0;entryDy=0;" edge="1" parent="1">
          <mxGeometry width="50" height="50" relative="1" as="geometry">
            <mxPoint x="65" y="395" as="sourcePoint" />
            <mxPoint x="205" y="355" as="targetPoint" />
          </mxGeometry>
        </mxCell>
        <mxCell id="RF46ALNrW0UuLXFVp8Kt-44" value="" style="endArrow=none;html=1;rounded=0;entryX=0.5;entryY=1;entryDx=0;entryDy=0;" edge="1" parent="1">
          <mxGeometry width="50" height="50" relative="1" as="geometry">
            <mxPoint x="205" y="395" as="sourcePoint" />
            <mxPoint x="205" y="355" as="targetPoint" />
          </mxGeometry>
        </mxCell>
        <mxCell id="RF46ALNrW0UuLXFVp8Kt-45" value="" style="endArrow=none;html=1;rounded=0;" edge="1" parent="1">
          <mxGeometry width="50" height="50" relative="1" as="geometry">
            <mxPoint x="344.9999999999998" y="395" as="sourcePoint" />
            <mxPoint x="205" y="355" as="targetPoint" />
          </mxGeometry>
        </mxCell>
        <mxCell id="RF46ALNrW0UuLXFVp8Kt-46" value="" style="endArrow=none;html=1;rounded=0;entryX=0.5;entryY=1;entryDx=0;entryDy=0;" edge="1" parent="1" target="RF46ALNrW0UuLXFVp8Kt-42">
          <mxGeometry width="50" height="50" relative="1" as="geometry">
            <mxPoint x="145" y="475" as="sourcePoint" />
            <mxPoint x="195" y="425" as="targetPoint" />
          </mxGeometry>
        </mxCell>
        <mxCell id="RF46ALNrW0UuLXFVp8Kt-47" value="" style="endArrow=none;html=1;rounded=0;exitX=0.5;exitY=0;exitDx=0;exitDy=0;" edge="1" parent="1" source="RF46ALNrW0UuLXFVp8Kt-40">
          <mxGeometry width="50" height="50" relative="1" as="geometry">
            <mxPoint x="355" y="475" as="sourcePoint" />
            <mxPoint x="205" y="435" as="targetPoint" />
          </mxGeometry>
        </mxCell>
        <mxCell id="RF46ALNrW0UuLXFVp8Kt-48" value="&lt;u&gt;unique&lt;br&gt;part id&lt;/u&gt;" style="ellipse;whiteSpace=wrap;html=1;align=center;" vertex="1" parent="1">
          <mxGeometry x="465" y="395" width="80" height="40" as="geometry" />
        </mxCell>
        <mxCell id="RF46ALNrW0UuLXFVp8Kt-49" value="part name" style="ellipse;whiteSpace=wrap;html=1;align=center;" vertex="1" parent="1">
          <mxGeometry x="545" y="476" width="80" height="40" as="geometry" />
        </mxCell>
        <mxCell id="RF46ALNrW0UuLXFVp8Kt-50" value="price" style="ellipse;whiteSpace=wrap;html=1;align=center;" vertex="1" parent="1">
          <mxGeometry x="665" y="474" width="80" height="40" as="geometry" />
        </mxCell>
        <mxCell id="RF46ALNrW0UuLXFVp8Kt-51" value="quantity&lt;br&gt;in stock" style="ellipse;whiteSpace=wrap;html=1;align=center;" vertex="1" parent="1">
          <mxGeometry x="745" y="395" width="80" height="40" as="geometry" />
        </mxCell>
        <mxCell id="RF46ALNrW0UuLXFVp8Kt-52" value="" style="endArrow=none;html=1;rounded=0;entryX=0.5;entryY=1;entryDx=0;entryDy=0;" edge="1" parent="1">
          <mxGeometry width="50" height="50" relative="1" as="geometry">
            <mxPoint x="504.9999999999998" y="395" as="sourcePoint" />
            <mxPoint x="644.9999999999998" y="355" as="targetPoint" />
          </mxGeometry>
        </mxCell>
        <mxCell id="RF46ALNrW0UuLXFVp8Kt-53" value="" style="endArrow=none;html=1;rounded=0;" edge="1" parent="1">
          <mxGeometry width="50" height="50" relative="1" as="geometry">
            <mxPoint x="784.9999999999998" y="395" as="sourcePoint" />
            <mxPoint x="644.9999999999998" y="355" as="targetPoint" />
          </mxGeometry>
        </mxCell>
        <mxCell id="RF46ALNrW0UuLXFVp8Kt-54" value="" style="endArrow=none;html=1;rounded=0;exitX=0.5;exitY=0;exitDx=0;exitDy=0;" edge="1" parent="1" source="RF46ALNrW0UuLXFVp8Kt-49">
          <mxGeometry width="50" height="50" relative="1" as="geometry">
            <mxPoint x="592" y="405" as="sourcePoint" />
            <mxPoint x="642" y="355" as="targetPoint" />
          </mxGeometry>
        </mxCell>
        <mxCell id="RF46ALNrW0UuLXFVp8Kt-55" value="" style="endArrow=none;html=1;rounded=0;entryX=0.5;entryY=1;entryDx=0;entryDy=0;exitX=0.5;exitY=0;exitDx=0;exitDy=0;" edge="1" parent="1" source="RF46ALNrW0UuLXFVp8Kt-50">
          <mxGeometry width="50" height="50" relative="1" as="geometry">
            <mxPoint x="705" y="475" as="sourcePoint" />
            <mxPoint x="644.9999999999998" y="355" as="targetPoint" />
          </mxGeometry>
        </mxCell>
        <mxCell id="RF46ALNrW0UuLXFVp8Kt-56" value="contains" style="shape=rhombus;perimeter=rhombusPerimeter;whiteSpace=wrap;html=1;align=center;" vertex="1" parent="1">
          <mxGeometry x="585" y="225" width="120" height="60" as="geometry" />
        </mxCell>
        <mxCell id="RF46ALNrW0UuLXFVp8Kt-57" value="takes" style="shape=rhombus;perimeter=rhombusPerimeter;whiteSpace=wrap;html=1;align=center;" vertex="1" parent="1">
          <mxGeometry x="382" y="150" width="80" height="50" as="geometry" />
        </mxCell>
        <mxCell id="RF46ALNrW0UuLXFVp8Kt-58" value="places" style="shape=rhombus;perimeter=rhombusPerimeter;whiteSpace=wrap;html=1;align=center;" vertex="1" parent="1">
          <mxGeometry x="372" y="255" width="100" height="50" as="geometry" />
        </mxCell>
        <mxCell id="RF46ALNrW0UuLXFVp8Kt-59" value="" style="endArrow=none;html=1;rounded=0;exitX=1;exitY=0.5;exitDx=0;exitDy=0;entryX=0;entryY=0.5;entryDx=0;entryDy=0;" edge="1" parent="1" source="RF46ALNrW0UuLXFVp8Kt-1" target="RF46ALNrW0UuLXFVp8Kt-57">
          <mxGeometry width="50" height="50" relative="1" as="geometry">
            <mxPoint x="412" y="275" as="sourcePoint" />
            <mxPoint x="462" y="225" as="targetPoint" />
          </mxGeometry>
        </mxCell>
        <mxCell id="RF46ALNrW0UuLXFVp8Kt-60" value="" style="endArrow=none;html=1;rounded=0;entryX=0;entryY=0.5;entryDx=0;entryDy=0;exitX=1;exitY=0.5;exitDx=0;exitDy=0;" edge="1" parent="1" source="RF46ALNrW0UuLXFVp8Kt-57" target="RF46ALNrW0UuLXFVp8Kt-2">
          <mxGeometry width="50" height="50" relative="1" as="geometry">
            <mxPoint x="412" y="275" as="sourcePoint" />
            <mxPoint x="462" y="225" as="targetPoint" />
          </mxGeometry>
        </mxCell>
        <mxCell id="RF46ALNrW0UuLXFVp8Kt-61" value="" style="endArrow=none;html=1;rounded=0;entryX=0;entryY=0.5;entryDx=0;entryDy=0;exitX=1;exitY=0.5;exitDx=0;exitDy=0;" edge="1" parent="1" source="RF46ALNrW0UuLXFVp8Kt-58" target="RF46ALNrW0UuLXFVp8Kt-2">
          <mxGeometry width="50" height="50" relative="1" as="geometry">
            <mxPoint x="412" y="345" as="sourcePoint" />
            <mxPoint x="462" y="295" as="targetPoint" />
          </mxGeometry>
        </mxCell>
        <mxCell id="RF46ALNrW0UuLXFVp8Kt-62" value="" style="endArrow=none;html=1;rounded=0;exitX=0.5;exitY=0;exitDx=0;exitDy=0;entryX=0;entryY=0.5;entryDx=0;entryDy=0;" edge="1" parent="1" source="RF46ALNrW0UuLXFVp8Kt-4" target="RF46ALNrW0UuLXFVp8Kt-58">
          <mxGeometry width="50" height="50" relative="1" as="geometry">
            <mxPoint x="412" y="345" as="sourcePoint" />
            <mxPoint x="462" y="295" as="targetPoint" />
          </mxGeometry>
        </mxCell>
        <mxCell id="RF46ALNrW0UuLXFVp8Kt-63" value="" style="endArrow=none;html=1;rounded=0;entryX=0.5;entryY=1;entryDx=0;entryDy=0;exitX=0.5;exitY=0;exitDx=0;exitDy=0;" edge="1" parent="1" source="RF46ALNrW0UuLXFVp8Kt-56" target="RF46ALNrW0UuLXFVp8Kt-2">
          <mxGeometry width="50" height="50" relative="1" as="geometry">
            <mxPoint x="412" y="345" as="sourcePoint" />
            <mxPoint x="462" y="295" as="targetPoint" />
          </mxGeometry>
        </mxCell>
        <mxCell id="RF46ALNrW0UuLXFVp8Kt-64" value="" style="endArrow=none;html=1;rounded=0;entryX=0.5;entryY=1;entryDx=0;entryDy=0;exitX=0.5;exitY=0;exitDx=0;exitDy=0;" edge="1" parent="1" source="RF46ALNrW0UuLXFVp8Kt-3" target="RF46ALNrW0UuLXFVp8Kt-56">
          <mxGeometry width="50" height="50" relative="1" as="geometry">
            <mxPoint x="412" y="345" as="sourcePoint" />
            <mxPoint x="462" y="295" as="targetPoint" />
          </mxGeometry>
        </mxCell>
      </root>
    </mxGraphModel>
  </diagram>
</mxfile>
